<?xml version="1.0"?><svg width="1000" height="1000" xmlns="http://www.w3.org/2000/svg" xmlns:xlink="http://www.w3.org/1999/xlink">
 <title>red play icon</title>
 <defs>
  <linearGradient id="linearGradient3624">
   <stop stop-color="#ffffff" offset="0" id="stop3626"/>
   <stop stop-color="#f1f1f1" offset="1" id="stop3628"/>
  </linearGradient>
  <linearGradient y2="0.527878" x2="1.027235" y1="0.470189" x1="1.027236" id="linearGradient3622" xlink:href="#linearGradient3624"/>
 </defs>
 <metadata id="metadata7">image/svg+xml</metadata>
 <g>
  <title>Layer 1</title>
  <g id="layer1">
   <g transform="matrix(22.7091, 0, 0, 22.7091, -10368.4, -16813.6)" id="g3644">
    <path fill="#ff0000" stroke="#ffaaaa" stroke-width="0.99962" stroke-miterlimit="4" id="path3632" d="m499.600555,763.381226c0,10.968628 -9.563507,19.860474 -21.360626,19.860474c-11.79718,0 -21.360626,-8.891846 -21.360626,-19.860474c0,-10.968689 9.563446,-19.860596 21.360626,-19.860596c11.797119,0 21.360626,8.891907 21.360626,19.860596z"/>
    <path fill="#ffffff" fill-opacity="0.517857" d="m457.569885,761.433655c-0.032196,4.071472 13.676147,-3.283386 19.821411,-3.214294c6.047668,0.067993 21.517883,7.9552 21.517883,2.5c0,-7.536011 -6.851379,-19.384827 -20.446442,-19.464294c-13.595306,-0.079407 -20.822144,11.232056 -20.892853,20.178589z" id="path3642"/>
   </g>
   <path fill="url(#linearGradient3622)" fill-rule="evenodd" d="m352.003937,702.04541l0,-428.190796l370.824554,214.095459l-370.824554,214.095337z" id="path2842"/>
  </g>
 </g>
</svg>